<?xml version="1.0" encoding="UTF-8"?>
<svg width="700pt" height="700pt" version="1.1" viewBox="0 0 700 700" xmlns="http://www.w3.org/2000/svg" xmlns:xlink="http://www.w3.org/1999/xlink">
 <g>
  <path d="m350 14c-73.922 0-133.84 59.922-133.84 133.84v127.12c0 54.879 33.602 102.48 81.199 123.2v-43.121c-25.762-17.359-43.121-46.48-43.121-80.078v-127.12c0-52.641 43.121-95.762 95.762-95.762 53.199 0 95.762 43.121 95.762 95.762v127.12c0 33.602-17.359 62.719-43.121 80.078v43.121c47.602-20.719 81.199-67.762 81.199-123.2v-127.12c0-73.918-59.918-133.84-133.84-133.84z"/>
  <path d="m350 183.12c10.641 0 19.039-8.3984 19.039-19.039v-51.52c0-10.641-8.3984-19.039-19.039-19.039s-19.039 8.3984-19.039 19.039v51.52c0 10.078 8.3984 19.039 19.039 19.039z"/>
  <path d="m400.96 449.68-31.922 31.922v-167.44c0-10.641-8.3984-19.039-19.039-19.039s-19.039 8.3984-19.039 19.039v166.88l-31.922-31.922c-7.2812-7.2812-19.602-7.2812-26.879 0-7.2812 7.2812-7.2812 19.602 0 26.879l64.398 64.398c3.9219 3.9219 8.3984 5.6016 13.441 5.6016 5.0391 0 9.5195-1.6797 13.441-5.6016l64.398-64.398c7.2812-7.2812 7.2812-19.602 0-26.879-7.8398-7.2773-19.602-7.2773-26.879 0.5625z"/>
 </g>
</svg>
